PathFileType	4	(X/Y/Z)	4_coords_data.trc
DataRate	CameraRate	NumFrames	NumMarkers	Units	OrigDataRate	OrigDataStartFrame	OrigNumFrames
30.0	30.0	6	21	m	30.0	1	44
Frame#	Time	THUMB_TIP	THUMB_IP	THUMB_MCP	THUMB_CMC	INDEX_TIP	INDEX_DIP	INDEX_PIP	INDEX_MCP	MIDDLE_TIP	MIDDLE_DIP	MIDDLE_PIP	MIDDLE_MCP	RING_TIP	RING_DIP	RING_PIP	RING_MCP	PINKY_TIP	PINKY_DIP	PINKY_PIP	PINKY_MCP	WRIST
X1	Y1	Z1	X2	Y2	Z2	X3	Y3	Z3	X4	Y4	Z4	X5	Y5	Z5	X6	Y6	Z6	X7	Y7	Z7	X8	Y8	Z8	X9	Y9	Z9	X10	Y10	Z10	X11	Y11	Z11	X12	Y12	Z12	X13	Y13	Z13	X14	Y14	Z14	X15	Y15	Z15	X16	Y16	Z16	X17	Y17	Z17	X18	Y18	Z18	X19	Y19	Z19	X20	Y20	Z20	X21	Y21	Z21
0	0.0	-0.03634579849243164	-0.10000299835205079	1.0127100219726564	-0.0312012996673584	-0.07329820251464844	1.02697998046875	-0.04283929824829102	-0.055614200592041016	1.052469970703125	-0.043924400329589844	-0.013731399536132812	1.06775	-0.03592350006103515	-0.01987540054321289	1.0455400390625	-0.022688400268554686	-0.022056600570678712	1.032449951171875	-0.01684480094909668	-0.024585500717163086	1.0062000122070311	-0.06209980010986328	-0.028064199447631836	1.0066300048828125	-0.03350859832763672	-0.006702589988708496	1.046989990234375	-0.020694799423217773	-0.0026700999736785887	1.03452001953125	-0.01384749984741211	-0.002172009944915771	1.0051900024414062	-0.06200960159301758	-0.0013690500259399409	1.0039600219726563	0.0	0.0	0.0	-0.02175950050354004	0.012944499969482421	1.0452900390625	-0.009281959533691406	0.01870050048828125	1.0198699951171875	-0.0548760986328125	0.0231963996887207	1.0098099975585937	-0.027970500946044922	0.022717100143432617	1.0489300537109374	-0.020866100311279296	0.028877899169921874	1.04225	-0.014718099594116211	0.03973410034179688	1.026030029296875	-0.05094810104370117	0.046520198822021484	1.016030029296875	-0.06477660369873046	0.00950730037689209	1.08872998046875
1	0.03333333333333333	-0.035625198364257815	-0.0987216033935547	1.0136699829101563	-0.0317371997833252	-0.07219840240478516	1.0264100341796876	-0.041503700256347656	-0.05357320022583008	1.052239990234375	-0.04278630065917969	-0.014872599601745605	1.068989990234375	-0.03753070068359375	-0.021588199615478514	1.043199951171875	-0.02183009910583496	-0.020965700149536134	1.0326099853515625	-0.016925399780273437	-0.02421500015258789	1.00675	-0.061577598571777345	-0.026972400665283204	1.0084099731445313	-0.028066200256347658	-0.006170400142669678	1.04447998046875	-0.02015609931945801	-0.002895020008087158	1.036300048828125	-0.013459500312805175	-0.001157510042190551	1.0066300048828125	-0.06150320053100586	-0.000705115973949432	1.0036599731445313	-0.03221929931640625	0.009489069938659668	1.04997998046875	-0.021352300643920897	0.01372130012512207	1.0450899658203125	-0.00918766975402832	0.01991670036315918	1.02	-0.054878700256347654	0.02432990074157715	1.0088900146484374	-0.03550419998168945	0.026800500869750978	1.0518299560546875	-0.021386699676513674	0.030814699172973633	1.0449200439453126	-0.015170700073242187	0.04036579895019531	1.0259300537109375	-0.051065101623535156	0.04728549957275391	1.017969970703125	-0.06450749969482422	0.011817299842834472	1.08893994140625
2	0.06666666666666667	-0.03547060012817383	-0.0978478012084961	1.013739990234375	-0.031569799423217776	-0.0713646011352539	1.0265699462890625	-0.041285400390625	-0.052811798095703126	1.0523800048828125	-0.042509201049804685	-0.014192799568176269	1.0692099609375	-0.037085201263427736	-0.020718900680541993	1.04352001953125	-0.021640399932861328	-0.020173200607299803	1.0329599609375	-0.01681100082397461	-0.023329999923706053	1.00702001953125	-0.06151499938964844	-0.026113000869750977	1.0087999877929688	-0.02795899963378906	-0.005296899795532227	1.0450899658203125	-0.019935600280761717	-0.0020729401111602777	1.0364000244140625	-0.013379500389099122	-0.000250782012939453	1.0067999877929688	-0.0615078010559082	0.000175257995724678	1.0041599731445312	-0.03175659942626953	0.010265000343322754	1.0503399658203125	-0.021271200180053712	0.014535099983215331	1.0452099609375	-0.009077899932861328	0.02077120018005371	1.02025	-0.054822399139404294	0.025191400527954103	1.0093300170898438	-0.0353218994140625	0.0276786003112793	1.051280029296875	-0.021263099670410155	0.03150200080871582	1.045	-0.015150099754333497	0.04125040054321289	1.0264599609375	-0.051040699005126956	0.04817229843139648	1.018489990234375	-0.06421080017089843	0.012535099983215331	1.0891400146484376
3	0.1	-0.03518989944458008	-0.09718569946289063	1.0139299926757812	-0.03139189910888672	-0.0706946029663086	1.0268299560546874	-0.04109590148925781	-0.052115699768066404	1.0527099609375	-0.04237710189819336	-0.013525699615478516	1.0694200439453125	-0.03706330108642578	-0.020097000122070312	1.043530029296875	-0.021638500213623048	-0.019525199890136718	1.03302001953125	-0.016923200607299804	-0.022714099884033202	1.0071400146484375	-0.06155699920654297	-0.025506200790405272	1.0091099853515626	-0.027923599243164062	-0.004702720165252685	1.0450999755859376	-0.019903099060058594	-0.001436750054359436	1.036530029296875	-0.013475500106811523	0.000429809987545013	1.0069099731445312	-0.061639198303222655	0.000776642978191375	1.0043099975585938	-0.0311289005279541	0.011035099983215332	1.05027001953125	-0.0211830997467041	0.015185199737548827	1.045469970703125	-0.009157850265502929	0.021420900344848632	1.0204000244140625	-0.054934200286865235	0.02582069969177246	1.00952001953125	-0.035403301239013675	0.02833580017089844	1.0523399658203125	-0.021205900192260742	0.032093399047851565	1.045199951171875	-0.015123600006103516	0.04180630111694336	1.0266500244140624	-0.051081100463867185	0.04876559829711914	1.0185900268554688	-0.06420429992675782	0.013140000343322755	1.0896099853515624
4	0.13333333333333333	-0.035164798736572266	-0.09664959716796875	1.01375	-0.03137910079956055	-0.07021360015869141	1.026760009765625	-0.041169998168945315	-0.051736301422119144	1.0526199951171875	-0.04241030120849609	-0.013183199882507324	1.069469970703125	-0.036997798919677735	-0.01922050094604492	1.0448800048828124	-0.021441699981689454	-0.019086000442504882	1.0331300048828125	-0.01681180000305176	-0.02220639991760254	1.0071900024414062	-0.06146770095825195	-0.024904199600219726	1.0091199951171874	-0.027871299743652343	-0.00429049015045166	1.04525	-0.019819700241088867	-0.001031039953231811	1.03681005859375	-0.013296500205993652	0.0009247210025787351	1.007	-0.06144820022583008	0.0014262299537658692	1.0045900268554688	-0.0322843017578125	0.011331999778747558	1.0505	-0.02109980010986328	0.015547499656677247	1.04568994140625	-0.008991990089416504	0.02186160087585449	1.0206699829101562	-0.054782398223876955	0.026459100723266602	1.009760009765625	-0.035401500701904294	0.02884119987487793	1.052800048828125	-0.021104700088500978	0.03244800186157227	1.0456800537109374	-0.014958700180053712	0.042256000518798825	1.0270799560546875	-0.0509276008605957	0.04935580062866211	1.01897998046875	-0.06423819732666015	0.013512999534606933	1.089510009765625
5	0.16666666666666666	-0.03502780151367187	-0.096341796875	1.0137999877929686	-0.03128429985046387	-0.06994419860839844	1.02681005859375	-0.041101898193359375	-0.051532699584960935	1.05268994140625	-0.04242110061645508	-0.012986800193786622	1.0695400390625	-0.037049800872802734	-0.01898040008544922	1.04502001953125	-0.021665199279785156	-0.018888999938964843	1.03302001953125	-0.016904300689697265	-0.02202350044250488	1.00727001953125	-0.06158660125732422	-0.02477120018005371	1.0093099975585937	-0.028108299255371092	-0.004112709999084472	1.0456099853515626	-0.019872800827026367	-0.0007594689726829521	1.03697998046875	-0.013490099906921387	0.0011162799596786499	1.0073099975585937	-0.061590301513671876	0.001592090010643005	1.00477001953125	-0.031768299102783205	0.011537599563598632	1.0509200439453126	-0.021199199676513673	0.015759400367736816	1.0456099853515626	-0.009161919593811034	0.02211359977722168	1.020719970703125	-0.054920101165771486	0.026624399185180662	1.0098900146484375	-0.03531760025024414	0.02900069999694824	1.0526600341796875	-0.021218599319458006	0.032719398498535154	1.0456500244140625	-0.015090299606323241	0.042512001037597655	1.0274000244140624	-0.05106420135498047	0.04952239990234375	1.0190999755859376	-0.06414820098876953	0.013633099555969239	1.0897099609375
